<svg width="20" height="20" viewBox="0 0 20 20" fill="none" xmlns="http://www.w3.org/2000/svg">
<path fill-rule="evenodd" clip-rule="evenodd" d="M20 10C20 4.47717 15.5228 0 10 0C4.47717 0 0 4.47717 0 10C0 15.5228 4.47717 20 10 20C15.5228 20 20 15.5228 20 10ZM2 10C2 5.58167 5.58167 2 10 2C14.4183 2 18 5.58167 18 10C18 14.4183 14.4183 18 10 18C5.58167 18 2 14.4183 2 10ZM9 6.04871C9 5.49646 9.44775 5.04871 10 5.04871C10.5522 5.04871 11 5.49646 11 6.04871V10.9696C11 10.9696 11 12 10 12C9.16553 12 9 11.1157 9 10.9696V6.04871ZM9 14C9 13.4478 9.44775 13 10 13C10.5522 13 11 13.4478 11 14C11 14.5522 10.5522 15 10 15C9.44775 15 9 14.5522 9 14Z" fill="#FF2D55"/>
</svg>
